<?xml version="1.0" standalone="no"?>
<!DOCTYPE svg PUBLIC "-//W3C//DTD SVG 20010904//EN"
 "http://www.w3.org/TR/2001/REC-SVG-20010904/DTD/svg10.dtd">
<svg version="1.0" xmlns="http://www.w3.org/2000/svg"
 width="720.000000pt" height="720.000000pt" viewBox="0 0 720.000000 720.000000"
 preserveAspectRatio="xMidYMid meet">
<metadata>
Created by potrace 1.11, written by Peter Selinger 2001-2013
</metadata>
<g transform="translate(0.000000,720.000000) scale(0.100000,-0.100000)"
fill="#000000" stroke="none">
<path d="M0 3600 l0 -3600 3600 0 3600 0 0 3600 0 3600 -3600 0 -3600 0 0
-3600z m4804 807 c208 -61 335 -156 412 -309 48 -96 67 -183 67 -313 1 -264
-116 -460 -339 -570 -51 -25 -72 -41 -67 -49 5 -7 110 -161 236 -343 125 -182
227 -334 227 -337 0 -3 -112 -6 -248 -6 l-249 0 -214 315 -214 315 -162 0
-163 0 -2 -312 -3 -313 -215 0 -215 0 -3 965 c-1 531 0 970 2 975 2 7 189 8
547 5 477 -5 551 -8 603 -23z m-2059 3 c245 -54 420 -210 481 -431 13 -47 18
-100 18 -199 0 -125 -2 -141 -30 -222 -56 -156 -156 -267 -311 -345 l-73 -36
34 -46 c78 -108 426 -620 432 -635 6 -14 -18 -16 -242 -16 l-249 1 -213 314
-213 315 -165 0 -164 0 -2 -312 -3 -313 -212 -3 -213 -2 0 975 0 975 518 0
c476 0 524 -2 607 -20z"/>
<path d="M4090 3771 l0 -282 273 3 c259 3 274 4 322 26 97 44 151 118 161 220
14 131 -50 235 -171 282 -56 22 -79 23 -322 28 l-263 4 0 -281z"/>
<path d="M2050 3771 l0 -281 252 0 c283 0 330 7 409 65 60 43 92 108 97 197 6
95 -17 156 -78 211 -80 72 -115 79 -417 85 l-263 4 0 -281z"/>
</g>
</svg>
